<?xml version="1.0" encoding="utf-8"?>
<!-- Generator: Adobe Illustrator 19.0.0, SVG Export Plug-In . SVG Version: 6.00 Build 0)  -->
<svg version="1.1" id="圖層_1" xmlns="http://www.w3.org/2000/svg" xmlns:xlink="http://www.w3.org/1999/xlink" x="0px" y="0px"
	 viewBox="0 0 960 560" style="enable-background:new 0 0 960 560;" xml:space="preserve">
<path id="XMLID_2_" d="M252.8,315.4l-12.8,7.2c-0.7-0.2-1.3-0.3-2-0.4c-12.1-0.8-28.4-16-28.9-28c0-0.4,0-0.7,0-1.1l2-24.2
	c0-0.3,0-0.5,0-0.8c0-11.4,24.6-8.3,34.2-10.1c1.4-0.3,2.8-0.1,4.2,0.3l9.3-5.8c0.9,0.3,1.8,0.4,2.7,0.4c11,0,25.1-0.3,28,8.1
	c0.6,1.6,0.6,3.4,0.1,5.1l-8.9,36c-0.2,0.7-0.3,1.5-0.3,2.2c0,10.7-13.5,7.9-21.6,11.1C256.9,316.2,254.8,316.1,252.8,315.4z"/>
</svg>
